<svg id="Layer_1" data-name="Layer 1" xmlns="http://www.w3.org/2000/svg" xmlns:xlink="http://www.w3.org/1999/xlink" viewBox="100 0 300 500"><defs><style>.cls-1,.cls-9{fill:none;}.cls-2{clip-path:url(#clip-path);}.cls-3{stroke:#1d1d1b;}.cls-3,.cls-9{stroke-miterlimit:10;}.cls-14,.cls-4,.cls-6,.cls-7,.cls-8{font-size:10px;}.cls-11,.cls-14,.cls-4{fill:#99cf29;}.cls-11,.cls-13,.cls-4,.cls-5,.cls-6,.cls-7,.cls-8{font-family:CourierNewPS-BoldMT, Courier New;font-weight:700;}.cls-5{font-size:12px;}.cls-13,.cls-5{fill:#fff;}.cls-6{fill:#a80054;}.cls-12,.cls-7{fill:#dd6400;}.cls-8{fill:#00e1f2;}.cls-9{stroke:#dadada;stroke-width:0.5px;}.cls-10{fill:#1b1718;opacity:0.98;}.cls-11{font-size:14px;}.cls-13{overflow: scroll; font-size:7px;}.cls-14{text-align: right; font-family:CourierNewPSMT, Courier New;}</style><clipPath id="clip-path" transform="translate(78.35 72.9)"><rect class="cls-1" width="195.23" height="265.56"/></clipPath></defs><g class="cls-2"><rect class="cls-3" x="78.35" y="72.9" width="195.23" height="265.14"/><text class="cls-4" transform="translate(87.76 273.1)">Voting</text><text class="cls-5" transform="translate(87.76 236.5)">
donationMatic, ' MATIC (', donationUSD, ' $)',
</text><text class="cls-6" transform="translate(162.09 257.92)">
35628009
</text><text class="cls-7" transform="translate(87.76 257.92)">Block</text><text class="cls-7" transform="translate(128.81 273.1)">Power</text><text class="cls-8" transform="translate(122.42 257.92)">number</text><polygon class="cls-9" points="
  500 0
  56 443
  72 79
  403 25 
  320 51 
  331 465
  63 475 
  88 87
  413 425 
  80 446
  462 332
  485 365
  75 28
"/><rect class="cls-10" x="78.35" y="69.5" width="195.23" height="57.3"/><rect class="cls-10" x="76.13" y="284.56" width="197.45" height="53.9"/><text class="cls-11" transform="translate(87.76 94.59)">Minter.<tspan class="cls-12" x="58.81" y="0">rocks</tspan></text><text class="cls-8" transform="translate(163.96 273.1)">
1.645
</text><text class="cls-13" transform="translate(87.76 105.97)">
I want travel the orld in 10 minutes and somethin to overflow  <tspan x="0" y="12">twice a day.
</tspan></text><text class="cls-14" transform="translate(87.75 303.68)">NOTIFICATION</text><text class="cls-14" transform="translate(87.76 322.84)">
This made in 15 minutes!
</text></g></svg>