<?xml version="1.0" encoding="utf-8"?>
<svg viewBox="200 0 600 1000" width="600" height="1000" xmlns="http://www.w3.org/2000/svg" xmlns:bx="https://boxy-svg.com">
  <defs>
    <clipPath id="clip-path" transform="translate(78.35 72.9)">
      <rect class="cls-1" width="195.23" height="265.56"/>
    </clipPath>
    <style>.cls-1,.cls-9{fill:none;}.cls-2{clip-path:url(#clip-path);}.cls-3{stroke:#1d1d1b;}.cls-3,.cls-9{stroke-miterlimit:10;}.cls-14,.cls-4,.cls-6,.cls-7,.cls-8{font-size:10px;}.cls-11,.cls-14,.cls-4{fill:#99cf29;}.cls-11,.cls-13,.cls-4,.cls-5,.cls-6,.cls-7,.cls-8{font-family:CourierNewPS-BoldMT, Courier New;font-weight:700;}.cls-5{font-size:12px;}.cls-13,.cls-5{fill:#fff;}.cls-6{fill:#a80054;}.cls-12,.cls-7{fill:#dd6400;}.cls-8{fill:#00e1f2;}.cls-9{stroke:#dadada;stroke-width:0.5px;}.cls-10{fill:#1b1718;opacity:0.98;}.cls-11{font-size:14px;}.cls-13{font-size:7px;}.cls-14{font-family:CourierNewPSMT, Courier New;}</style>
  </defs>
  <g class="cls-2" style="" transform="matrix(3.073298, 0, 0, 3.765627, -40.792856, -274.514233)">
    <rect class="cls-3" x="78.35" y="72.9" width="195.23" height="265.14"/>
    <text class="cls-4" style=" font-size: 10px;" x="88.111" y="273.1">Voting</text>
    <text class="cls-5" style=" font-size: 12px;" x="88.111" y="236.5" transform="matrix(0.922287, 0, 0, 1, 6.847331, 0)">5 Matic (2.67$)</text>
    <text class="cls-6" style=" font-size: 10px;" x="162.95" y="257.92">35628009</text>
    <text class="cls-7" style=" font-size: 10px;" x="88.111" y="257.92">Block</text>
    <text class="cls-7" style=" font-size: 10px;" x="129.11" y="273.1">Power</text>
    <text class="cls-8" style=" font-size: 10px;" x="122.602" y="257.92">number</text>
    <polygon class="cls-9" points="67.633 146.236 237.66 78.968 319.126 320.087 189.436 113.016 13.273 207.994 338.656 172.464 170.397 338.46 304.824 72.9 44.528 255.883 67.633 146.236"/>
    <rect class="cls-10" x="78.35" y="72.9" width="195.23" height="53.112" bx:origin="0.5 0.5"/>
    <rect class="cls-10" x="78.35" y="285.348" width="195.23" height="53.112"/>
    <text class="cls-11" style="" x="88.111" y="94.59">Minter.<tspan class="cls-12" x="146.921" y="94.59" style="font-size: 14px; word-spacing: 0px;">rocks</tspan></text>
    <text class="cls-8" style=" font-size: 10px;" x="164.902" y="273.1">1.6452</text>
    <text class="cls-13" style="" x="88.111" y="105.97">I want travel the orld in 10 minutes.<tspan x="88.111" y="117.97" style="font-size: 7px; word-spacing: 0px;">twice a day.</tspan></text>
    <text class="cls-14" transform="matrix(0.813628, 0, 0, 1.01345, 91.365326, 304.546661)" style="fill: rgb(118, 155, 44); paint-order: fill; " bx:origin="0.494311 0.497584">notification</text>
    <text class="cls-14" transform="matrix(0.994492, 0, 0, 1, 88.111488, 322.839996)" style="">This made in 15 minutes!</text>
  </g>
</svg>